# xmcd CD database file
#
# Track frame offsets:
#	150
#	29934
#	50364
#	58840
#	72705
#	90739
#	108539
#	120870
#	134548
#	150313
#	163392
#	178569
#	192492
#	207353
#	222317
#	239448
#	262097
#
# Disc length: 4045 seconds
#
# Revision: 0
# Processed by: cddbd v1.5.1PL0 Copyright (c) Steve Scherf et al.
# Submitted via: CDex 1.60beta1
#
DISCID=0d0fcb11
DTITLE=J.M.'s Home - Jmmidi Best Hits 2 Ver.2003
DYEAR=2003
DGENRE=Game
TTITLE0=F.F.? メインテーマ From ファイナルファンタジー?
TTITLE1=あの丘を越えて From ファイナルファンタジーIX
TTITLE2=大いなる翼を広げ From ファイナルファンタジーV
TTITLE3=Ride On From ファイナルファンタジー?
TTITLE4=飛空挺 ヒルダガルデ From ファイナルファンタジーIX
TTITLE5=ティナのテーマ From ファイナルファンタジー?
TTITLE6=ファイナル・ファンタジー4 メインテーマ From ファイナルファンタジーIX
TTITLE7=仲間を求めて From ファイナルファンタジー?
TTITLE8=決戦！ サルーイン From ロマンシング サ・ガ
TTITLE9=七英雄バトル From ロマンシング サ・ガ２
TTITLE10=ラストバトル From ロマンシング サ・ガ２
TTITLE11=四魔貴族バトル１ From ロマンシング サ・ガ３
TTITLE12=Battle #5 From サガ フロンティア
TTITLE13=Last Battle -Asellus- From サガ フロンティア
TTITLE14=Last Battle -Red- From サガ フロンティア
TTITLE15=ロマサガ体操第一
TTITLE16=データトラック
EXTD=YEAR: 2003
EXTT0=
EXTT1=
EXTT2=
EXTT3=
EXTT4=
EXTT5=
EXTT6=
EXTT7=
EXTT8=
EXTT9=
EXTT10=
EXTT11=
EXTT12=
EXTT13=
EXTT14=
EXTT15=
EXTT16=
PLAYORDER=
